<svg xmlns="http://www.w3.org/2000/svg" xmlns:xlink="http://www.w3.org/1999/xlink" width="1462" height="1080" viewBox="0 0 1462 1080">
  <defs>
    <clipPath id="clip-csvg">
      <rect width="1462" height="1080"/>
    </clipPath>
  </defs>
  <g id="csvg" clip-path="url(#clip-csvg)">
    <rect width="1462" height="1080" fill="rgba(254,254,254,0)"/>
    <path id="Path_288" data-name="Path 288" d="M2987.853,4452.912s29.384,3.609,29.9-6.7,0-39.043,0-39.043-5.661-6.837-16.486,4.5c-.515-.516-30.17-15.969-30.17-15.969s-28.092,2.05-17.267,15.969,23.3,34.539,23.3,34.539l10.723,12.848Z" transform="translate(-2152 -4017)" fill="#ffb38a"/>
    <path id="Path_289" data-name="Path 289" d="M3017.8,4447.241s10.26,41.241,24.178,38.147-2.062-4.639,17.011-28.868,42.787-24.744,42.787-24.744,24.744,25.774,38.663,2.577c1.031,0,37.632-2.578,56.705,53.612s4.639,92.275,4.639,92.275-42.787,61.86-84.542,46.4c-.515,0-21.651,4.124-24.744-10.31s-2.062-12.372-2.062-12.372,38.147-8.763,36.6-23.713c.515-1.031-119.081-66.5-119.081-66.5s-27.837-56.705-17.012-57.221S3017.8,4447.241,3017.8,4447.241Z" transform="translate(-2152 -4017)" fill="#f9f8f8"/>
    <path id="Path_290" data-name="Path 290" d="M3079.613,4350.842s-5.671,50,10.825,57.736,18.043,13.918,18.043,18.558v11.856s29.9,11.341,31.446-5.155,10.565-42.536,10.565-42.536-2.932-20.952-9.749-18.933c-1.583.453-4.061,6.33-6.486,10.949-.195.371-.393-2.414-.72-1.906-1.526,2.437,1.513-1.17.72-1.7-2.18-1.081,0-20.77,0-20.77s-21.817-3.614-33.923-5.793c-1.935-.348-6.012-.705-7.064-1.271A18.073,18.073,0,0,0,3079.613,4350.842Z" transform="translate(-2152 -4017)" fill="#ffb38a"/>
    <path id="Path_291" data-name="Path 291" d="M3070.334,4285.889s-4.124,29.383,44.333,7.217c2.577.516,36.6-3.093,57.221,29.384.516,2.578-2.062,55.159-11.856,61.345s-15.465,25.775-15.465,25.775,2.062-42.786-5.671-32.992-8.764,13.4-5.155-16.5c-1.031,0-71.139,1.03-72.686-34.539S3070.334,4285.889,3070.334,4285.889Z" transform="translate(-2152 -4017)"/>
    <g id="Rectangle_25" data-name="Rectangle 25" transform="translate(947.151 346.378) rotate(10)" fill="none" stroke="#2928fe" stroke-width="6">
      <rect width="33" height="31" rx="11" stroke="none"/>
      <rect x="3" y="3" width="27" height="25" rx="8" fill="none"/>
    </g>
    <path id="Path_293" data-name="Path 293" d="M2802.207,4296.106s-28.552,52.006-56.085,57.1c2.039,1.02,5.1,20.395-11.217,35.69s0,30.592,0,30.592-1.02,33.651-56.085,10.2c-6.118-2.04,21.414-15.3,11.217-54.045s12.237-47.927,12.237-47.927-26.582-89.736,17.267-87.7c.985-1.97,11.046-84.563,84.329-64.373,2.5.688,2.491-.971,5.231,0,0,.744,43.8,4.163,46.772,28.31,1.052,8.539-5.5,21.2-18.995,36.063C2786.911,4295.086,2802.207,4296.106,2802.207,4296.106Z" transform="translate(-2152 -4017)"/>
    <path id="Path_294" data-name="Path 294" d="M2848.8,4227.036s5.418,53.359-32.312,74.774c-.483-.483-12.079.625-16-4.308-3.956-4.966.444-16.811,16-35.047C2846.055,4227.784,2848.8,4227.036,2848.8,4227.036Z" transform="translate(-2152 -4017)" fill="#ffb38a" opacity="0.4"/>
    <path id="Path_295" data-name="Path 295" d="M2564.611,4052.391H3053.06v242.695l-134.317.995,26.058-65.66s18.523-67.735-23.286-21.847c2.039,0,0-4.243,0-4.243s1.448,4.055-2.772,4.243c-1.6.047-5.662-10.245-5.328-4.243.41,7.379,2.669,8.806,5.328,13.474,3.589,6.308,2.772,14.059,2.772,14.059s-56.844,78.519-78.259,68.321H2817.5s21.414-23.454,27.533-56.085,10.2-39.769,10.2-39.769-79.539-66.282-110.13-8.158-12.237,56.085-12.237,56.085-39.769,22.434-34.671,47.927H2564.611Z" transform="translate(-2152 -4017)" fill="#26caca"/>
    <path id="Path_296" data-name="Path 296" d="M2920.5,4228.8l-12.237-20.395s0-14.276,12.237-6.118,6.118-56.085,31.612-8.158c1.02,2.04-9.152,44.9-9.152,44.9s-6.144-34.707-11.243-15.332S2920.5,4228.8,2920.5,4228.8Z" transform="translate(-2152 -4017)" fill="#ffb48a"/>
    <path id="Path_297" data-name="Path 297" d="M2403.824,4660.518l84.416,43.81,86.323-47.6-91.766-52.7Z" transform="translate(-2152 -4017)"/>
    <path id="Path_298" data-name="Path 298" d="M2488.628,4704.328v62.428l-60.262-38.323-22.856-69.179Z" transform="translate(-2152 -4017)" fill="#5668a9"/>
    <path id="Path_299" data-name="Path 299" d="M2570.768,4657.567l-18.549,72.933-65.344,38.364V4703.1Z" transform="translate(-2152 -4017)" fill="#5668a9"/>
    <path id="Path_301" data-name="Path 301" d="M2810.314,4490.294l-146.694,85.825s-18.869,4.869,0,19.478,81.132,57.4,81.132,57.4,90.668-141.056,133.885-143.49c-1.218,0-24.309-2.461-24.309-2.461s-25.752-.315-35.491-10.054S2810.314,4490.294,2810.314,4490.294Z" transform="translate(-2152 -4017)" fill="#e8e8e8"/>
    <path id="Path_303" data-name="Path 303" d="M3089.626,4604.361s-24.236-3.9-11.252,10.819c-.865.866-36.354-1.731-22.937,11.252s2.164,18.61,22.938,16.446,32.891-12.551,32.891-12.551-19.475-9.521-19.475-15.147A31.882,31.882,0,0,0,3089.626,4604.361Z" transform="translate(-2152 -4017)" fill="#ffb38a"/>
    <path id="Path_304" data-name="Path 304" d="M2950.852,4472.514l51.547,30.719,3.657,8.777,125.173,70.746s-20.936,22.527-42.147,22.527-8.72,12.78-8.72,12.78H3051.4l14.628,24.136s25.238,1.257,40.128-7.85c2.3-1.406,4.207.117,5.95-2.39,11.7-16.822,14.628-3.657,14.628-3.657s26.331.731,33.645-10.24,22.673-10.971,22.673-10.971l158.714,92.157s22.673,10.239-11.7,29.256-199.672,119.218-199.672,119.218-16.822,8.777-34.376,0-252.333-144.086-252.333-144.086,4.5-45.665,28.49-47.541c5.119-.4,8.142,11.57,16.126,15.359,38.06,18.063,82.2,10.665,104.822,1.156,2.777-1.167-29.06-19.354-26.988-21.08,17.554-14.628,53.819-2.019,53.819-2.019s-26.4,13.721-23.477,2.019-12.362,4.564-12.362,4.564-84.9,31.443-88.553-45.354c1.463-1.463,7.077-36.31,7.077-36.31l-14.338-27.315s24.136-6.583,34.376-27.062,17.553-16.822,17.553-16.822Z" transform="translate(-2152 -4017)" fill="#e8e8e8"/>
    <path id="Path_308" data-name="Path 308" d="M2824.763,4427.417l100.838-55.169,43.679,24.367s-37.985,8.589,13.824,44.629c-2.252.751,18.771,60.818,18.771,60.818l-54.061-30.784s-23.25-29.34-57.409-28.1c-10.052.364-12.305-9.26-26.713,1.985l-49.159,10.894Z" transform="translate(-2152 -4017)" fill="#3f49b5"/>
    <path id="Path_307" data-name="Path 307" d="M2708.527,4502.358l-159.514,90.6s-21,35.45-32.461,30.1,53.092,31.79,53.092,31.79l-20.63,74.881-62.677,33.363-53.074-33.363-26.065-65-146.6,78.15s-2.856,4.8,0,13.353c8.053,24.125,38.7,76.418,127.028,107.89,118.4,42.187,56.8-.325,128.93,77.245,17.455,18.772,37.685,24.663,53.092,36.733,20.4,15.983,91.737,18.049,111.852,21.857,26.206,4.962,9.422,56.829,43,40.336,6.258-3.074,14.37-2.992,23.128-2,13.175,1.49,27.536,5.229,36.75,2,55.389-19.412,85.066-39.148,97.984-24.078,16.331,19.052,138.81,9.526,152.419,0,1.375-.962-4.266,1.938,0,0,35.156-15.969,171.224-68.236,193.246-118.4,10.386-23.658,38.157-16.849,73.98-25.32,48.083-11.37,105.657-33.2,105.657-33.2s96.884-30.463,117.4-113.478c.577-2.334-.474-6.991,0-9.557-1.361,2.722-316.333-179.425-316.333-179.425s-16.531,78.844-30.14,69.317S3361.1,4713.041,3361.1,4713.041s-13.341,9.429-28.454,21.437c-3.4,2.706,6.135,6.805,0,8.406-31.3,8.165-204.372,123.116-204.372,123.116s-3.229.372-17.806-1.873c-7.562-1.165-18.866-5.878-27.718-8.491-3.26-.961-6.432,2.083-8.516,0-16.331-16.331-234.425-139.365-234.425-139.365l-21.421,46.825-6.8,149.7s85.736,8.165,6.8,36.744c-5.443-1.361-27.218,10.888-34.022-8.165s-46.27,0-46.27,0-23.135-2.722-13.609-19.053,0-16.331,0-16.331,28.2,71.656,52.886,72.116c35.366.661,71.887-71.627,74.334-88.6,1.448-10.041-23.266-69.236-53.31-90.852-14.359-10.331-46.017,13.143-45.8,7.508,1.112-29.022,7.84-57.795,3.754-76.428-8.448-38.529-8.667-63.5-9.832-72.4-.287-2.189-3.659-1.977-3.659-1.977l-92.106-62.821s23.381-34.934,42.433-33.573S2708.527,4502.358,2708.527,4502.358Z" transform="translate(-2152 -4017)" fill="#3f49b5"/>
    <path id="Path_309" data-name="Path 309" d="M3017.8,4425.269l39.635,28.74s-7.509,36.792-14.266,30.785-22.957-30.034-25.369-42.047S3017.8,4425.269,3017.8,4425.269Z" transform="translate(-2152 -4017)" fill="#3f49b5"/>
    <path id="Path_310" data-name="Path 310" d="M3153.321,4391.479s83.111-5.58,152.044,146.074c3.447-1.723,43.083,27.573,70.657,10.34,22.334-13.959,120.54,17.033,163.415,71.616,9.924,12.634,9.439,14.254,11.076,33.9,3.74,44.875-2.8,41.852-11.076,53.627-10.43,14.849-12.365,17.189-12.365,17.189l-319.937-186.673s-14.268-104.44-67.692-104.44a83.9,83.9,0,0,1,2.414-22.929C3143.484,4403.688,3153.321,4391.479,3153.321,4391.479Z" transform="translate(-2152 -4017)" fill="#e2e6ec"/>
    <path id="Path_311" data-name="Path 311" d="M2920.367,4294.456l4.4,78.22,76.5,39.922s12.443-24.056,16.895,12.671c3.339,5.564,40.152,28.65,40.152,28.65s34.172-30.635,49.753-18.393c.5.5,1.745-7.775,0-13.274-1.914-6.04-7.431-9.8-14.14-12.85-12.242-5.564-13.355-22.258-13.355-22.258l-22.258-8.9,22.258,8.9v-33.388h0v-5.564l-22.258-24.484-5.565-28.936Z" transform="translate(-2152 -4017)" fill="#e2e6ec"/>
    <path id="Path_312" data-name="Path 312" d="M2924.762,4373.508l-104.749,64.079-10.83-1.8s28.1-66.573,16.966-74.363,84.144-29.921,93.048-69.986C2922.537,4295.884,2924.762,4373.508,2924.762,4373.508Z" transform="translate(-2152 -4017)" fill="#edf0f5"/>
    <path id="Path_313" data-name="Path 313" d="M2684.371,4354.265s-156.922-56.155-180.293,98.541c2.226-2.226-26.71,102.389-43.4,101.276s10.562,47.557,10.562,47.557l26.64-22.8s-10.492-31.439-4.927-35.891-13.992,19.14,4.927,40.285,203.189-142.674,59.622-34.72c-1.113,2.226-38.546,43.1-32.982,53.121s181-102.09,181-102.09-1.113-27.824,16.694-35.614,16.694-41.178,16.694-41.178-25.6,37.84-54.533,0c1.113-1.113,10.017-44.518,4.452-58.985S2684.371,4354.265,2684.371,4354.265Z" transform="translate(-2152 -4017)" fill="#edf0f5"/>
    <path id="Path_314" data-name="Path 314" d="M2369.414,4615.293s-130.212,69-109.066,141.341c-2.226,1.113,146.906-84.583,146.906-84.583v-15.581l38.952-24.484s35.614-20.032-27.823-8.9S2369.414,4615.293,2369.414,4615.293Z" transform="translate(-2152 -4017)" fill="#edf0f5"/>
    <path id="Path_283" data-name="Path 283" d="M2741.336,4719.813a657.283,657.283,0,0,1,3.028,71.619c-.5,41.4-5.4,91.361-23.361,121.752,2.7,0,18.886,32.376,33.726-6.746s22.934-98.479,22.934-98.479v105.225s1.965,20.527,7.072,27.379c6.675,8.962,18.017.278,26.654-47.615,14.84-82.291,29.81-165.931,29.81-165.931s-51.4,23.262-63.536,13.819S2741.336,4719.813,2741.336,4719.813Z" transform="translate(-2152 -4017)" fill="#08070f"/>
    <path id="Path_285" data-name="Path 285" d="M2758.605,4903.02h9.095l5.823,5.257v12.136s-40.82,40.819-47.439,14.342,0-14.342,0-14.342,26.478-15.445,26.478-12.136S2758.605,4903.02,2758.605,4903.02Z" transform="translate(-2152 -4017)" fill="#fff"/>
    <path id="Path_284" data-name="Path 284" d="M2808.827,4921.515s58.1-17.652,31.621,20.961c-3.255,4.747-6.559-1.741-11.263,0-6.852,2.54-15.089,11.561-20.358,12.352-17.133,2.575-25.374-5.732-25.374-5.732l-2.937-7.826,2.937-7.62Z" transform="translate(-2145 -4018)" fill="#fff"/>
    <path id="Path_286" data-name="Path 286" d="M2829.1,4523.352l19.078-2.462s15.444,35.122,30.394,10.894,15.98-30.93,19.589-28.353,4.175,17.459,4.175,17.459,1.885-10.182,5.231-17.459c2-4.338,4.4,1.633,2.966,0-2.937-3.357,6-.81,13.958,0,1.437.149,2.551,3.057,4.085,2.578,8.248-2.578-14.95,36.085-28.353,36.6-2.091.081-3.838,2.905-5.58,3.206-7.534,1.289-6.792,1.949-6.792,1.949l14.485,23.9s-68.6,2.481-73.235-21.232S2829.1,4523.352,2829.1,4523.352Z" transform="translate(-2152 -4017)" fill="#ffb38a"/>
    <path id="Path_306" data-name="Path 306" d="M2743.854,4673.343l4.135-25.909Z" transform="translate(-2152 -4017)" fill="#5267cc"/>
    <path id="Path_300" data-name="Path 300" d="M2488.628,4660.006s1.944-33.436,22.161-34.991,36.546-3.11,34.991-45.1,69.982-73.87,69.982-73.87,13.219-19.44-21.772-5.443-48.21,33.436-48.21,33.436-34.991-70.76-45.1,6.22c0,.778-21.772-4.665-22.55,33.436s0,29.548,0,29.548-64.539-126.745-108.083-62.984-20.994,52.1-20.994,52.1,23.327-14,31.88,4.666-11.664,12.441-10.886,14.774-1.555,25.66,45.1,13.219,43.544-3.888,43.544-3.888Z" transform="translate(-2152 -4017)" fill="#26caca"/>
    <path id="Path_302" data-name="Path 302" d="M2983.425,4660.085s15.317-27.16,14.451-11.147,32.892-16.446,15.147,14.282c-5.927,10.263-13.222,8.8-16.229,10.669-5.249,3.285-5.226.855-5.226.855Z" transform="translate(-2152 -4017)" fill="#ffb38a"/>
    <path id="Path_282" data-name="Path 282" d="M2830.275,4524.663s-31.573,15.82-58,60.716c-17.141,29.117-35.546,66.153-29.684,134.894,2.7,4.047,40.45,48.119,97.109,6.3-1.349,2.7,6.766-60.26,27-67.005s21.584,51.264,124.111,17.538c2.7,0,12.141-25.632-40.471-17.538s-47.216-87.687-47.216-87.687-67.451,2.7-72.848-20.235S2830.275,4524.663,2830.275,4524.663Z" transform="translate(-2152 -4017)" fill="#2a6d33"/>
    <path id="Path_292" data-name="Path 292" d="M2703.358,4553.348l104.967-64.514s11.217-56.084,17.335-46.907-7.138-37.73,0-49.967,3.059-30.592,0-32.631,83.617-11.216,115.229-107.071c1.02-1.02,11.217-69.342-27.533-11.217s-73.42,59.144-73.42,59.144l-39.145-2.067s-31.217,44.9-48.552,52.034c-13.747,5.661-6.5,10.381-10.2,20.395-.827,2.254,4.222,6.011,0,9.177-7.22,5.415-13.629,13.307-14.956,20.7-2.284,12.714,5.273,24.608,5.273,24.608s.505,36.266-13.771,44.424S2703.358,4553.348,2703.358,4553.348Z" transform="translate(-2152 -4017)" fill="#a29308"/>
    <path id="Path_287" data-name="Path 287" d="M2796.086,4518.9s33.508.516,17.011-31.961,33.508-50,33.508-50l17.011,7.732s52.581-37.116,77.841,9.795-13.4,52.065-13.4,52.065l-19.073-3.608-7.217,23.713-2.578-23.713s-19.589,54.643-41.756,32.477-10.825-28.868-10.825-28.868-9.279,24.229-33.508,12.372C2813.1,4521.474,2796.086,4518.9,2796.086,4518.9Z" transform="translate(-2152 -4017)"/>
    <g id="Rectangle_24" data-name="Rectangle 24" transform="matrix(0.985, 0.174, -0.174, 0.985, 915.106, 338.899)" fill="none" stroke="#2928fe" stroke-width="6">
      <rect width="30" height="31" rx="11" stroke="none"/>
      <rect x="3" y="3" width="24" height="25" rx="8" fill="none"/>
    </g>
    <g id="Rectangle_26" data-name="Rectangle 26" transform="translate(445 137)" fill="#fff" stroke="#707070" stroke-width="1">
      <rect width="73" height="54" stroke="none"/>
      <rect x="0.5" y="0.5" width="72" height="53" fill="none"/>
    </g>
    <g id="Rectangle_27" data-name="Rectangle 27" transform="translate(551 99)" fill="#fff" stroke="#707070" stroke-width="1">
      <rect width="53" height="38" stroke="none"/>
      <rect x="0.5" y="0.5" width="52" height="37" fill="none"/>
    </g>
    <g id="Rectangle_28" data-name="Rectangle 28" transform="translate(636 104)" fill="#fff" stroke="#707070" stroke-width="1">
      <rect width="68" height="33" stroke="none"/>
      <rect x="0.5" y="0.5" width="67" height="32" fill="none"/>
    </g>
    <g id="Rectangle_29" data-name="Rectangle 29" transform="translate(740 85)" fill="#fff" stroke="#707070" stroke-width="1">
      <rect width="86" height="14" stroke="none"/>
      <rect x="0.5" y="0.5" width="85" height="13" fill="none"/>
    </g>
    <g id="Rectangle_30" data-name="Rectangle 30" transform="translate(841 129)" fill="#fff" stroke="#707070" stroke-width="1">
      <rect width="44" height="42" stroke="none"/>
      <rect x="0.5" y="0.5" width="43" height="41" fill="none"/>
    </g>
    <path id="Path_315" data-name="Path 315" d="M3056.97,4809.1s40.556,37.618,76.409,15.282,161.048-102.859,161.048-102.859,23.51-27.625-22.335-44.083C3270.916,4675.677,3056.97,4809.1,3056.97,4809.1Z" transform="translate(-2152 -4017)" fill="#f8f8f8"/>
    <ellipse id="Ellipse_41" data-name="Ellipse 41" cx="25.5" cy="19.5" rx="25.5" ry="19.5" transform="translate(1027 712)" fill="#858585"/>
    <path id="Path_316" data-name="Path 316" d="M2844.155,4701.05l246.036,143.471s18.253,14.2,43.267,0,212.277-127.772,212.277-127.772,8.113-9.464-4.732-18.253,18.253,11.493,18.253,11.493,4.732,14.2-13.521,25.689-203.489,125.744-203.489,125.744-20.957,20.958-67.6-4.732-235.263-139.941-235.263-139.941Z" transform="translate(-2152 -4017)" fill="#5267cc"/>
    <path id="Path_317" data-name="Path 317" d="M2748.059,4646.382l-84.548-55.264s-17-2.362,17.476-21.728,21.728-14.642,21.728-14.642v-9.919l-53.846,35.9s-12.753,11.808,8.5,22.672,86.438,55.736,86.438,55.736Z" transform="translate(-2152 -4017)" fill="#5267cc"/>
    <path id="Path_318" data-name="Path 318" d="M2394.071,4544.83s50.9,26.527,71.634,67.057,23.564,43.357,23.564,43.357,3.77-101.8,35.817-102.738" transform="translate(-2152 -4017)" fill="none" stroke="#707070" stroke-width="4"/>
    <path id="Path_319" data-name="Path 319" d="M93,0c51.362,0,279.385-11.5,279.385,12.524,0,11.772-52.075,43.29-114.153,58.755C218.288,81.231,174.243,84.885,140.1,86.235c-20.347.8-37.2.765-47.1.765C41.638,87,0,67.524,0,43.5S41.638,0,93,0Z" transform="translate(535 957)" fill="#3f49b5"/>
  </g>
</svg>
