<svg xmlns="http://www.w3.org/2000/svg" xmlns:xlink="http://www.w3.org/1999/xlink" width="1156" height="1014" viewBox="0 0 1156 1014">
  <defs>
    <clipPath id="clip-bootcamp1">
      <rect width="1156" height="1014"/>
    </clipPath>
  </defs>
  <g id="bootcamp1" clip-path="url(#clip-bootcamp1)">
    <rect width="1156" height="1014" fill="rgba(255,255,255,0)"/>
    <g id="Group_16" data-name="Group 16" transform="translate(91 -49)">
      <path id="Path_152" data-name="Path 152" d="M637.691,4095.273s-.946,9.228,8.281,7.1,15.616-13.25,15.616-13.25-7.1-11.594-15.616-8.991c-2.453.75-2.905,2.892-4.259,4.968A33.41,33.41,0,0,0,637.691,4095.273Z" transform="translate(-249.232 -3917.979)" stroke="#707070" stroke-width="1"/>
      <path id="Path_165" data-name="Path 165" d="M764.54,4210.689s3.094-.822,4.59,0c.2.087,0,.68,0,1.234V4222a1.131,1.131,0,0,1,0,.949c-.343.811-1.853,2.793-3.618,1.188C763.248,4222.084,764.54,4210.689,764.54,4210.689Z" transform="translate(-272.521 -3942.017)"/>
      <path id="Path_170" data-name="Path 170" d="M770.211,4211.415l1.925-1.146,1.984-.965.458,5.874-.458,4.788-4.074,3.341Z" transform="translate(-273.602 -3941.828)" fill="#e12ebd"/>
      <path id="Path_222" data-name="Path 222" d="M0,19.28,24.1,34.062l6.427-4.177V0Z" transform="matrix(0.996, -0.087, 0.087, 0.996, 205.405, 760.015)" fill="none"/>
      <g id="Group_7" data-name="Group 7">
        <g id="Group_6" data-name="Group 6" transform="translate(59.665 176.893)">
          <path id="Path_103" data-name="Path 103" d="M469.663,4463.11s-5.273,2.609-3.8,7.25c-.316-.211-24.994-13.394-24.994-13.394s-1.055-5.483,4.113-7.593C445.09,4449.374,469.663,4463.11,469.663,4463.11Z" transform="translate(-272.654 -4162.915)" fill="none" stroke="#707070" stroke-width="1"/>
          <path id="Path_104" data-name="Path 104" d="M440.98,4459.194l-.2,351.095,22.869,13.469,2.583-351.275Z" transform="translate(-272.654 -4164.723)" fill="#949494" stroke="#707070" stroke-width="1"/>
          <path id="Path_151" data-name="Path 151" d="M549.347,4167.329s21.688-28.184,31.152-27.71,27.624-31.174,38.8-39.041,3.575,7.138,6.888,5.719-12.8,17.706-12.8,22.912-20.822,19.875-20.822,19.875-10.647,6.152-10.647,8.992-16.521,21.612-16.521,21.612l-6.9-10.018Z" transform="translate(-292.639 -4098.283)" fill="#fee5d9"/>
          <path id="Path_154" data-name="Path 154" d="M374.4,4263.76s-21.067,5.667-21.067,13.429,18.111,7.762,18.111,7.762,30.677-14.044,29.938-17-2.957-12.2-13.675-7.392S374.4,4266.1,374.4,4266.1Z" transform="translate(-256.555 -4127.906)"/>
          <path id="Path_167" data-name="Path 167" d="M742.949,4198.179s2.682,1,4.989,1.755a21.438,21.438,0,0,1,4.691,1.773c2.02,1.212,3.5,3.19,3.167,4.689-.02.088.253.2.317.523-.03.477.761.451.9,1,.12.767-.186.532-.186.532l-1.781,4.475-1.216,2.025-1.52,1.419a3.948,3.948,0,0,1-2.735-1.419c-2.69-2.9-7.823-9.674-7.531-11.719C742.454,4200.355,742.949,4198.179,742.949,4198.179Z" transform="translate(-328.11 -4116.673)" fill="#f9dad2"/>
          <path id="Path_168" data-name="Path 168" d="M738.305,4180.509s-5.143-13.989,11.109-20.982c1.029-.206,15.017-1.44,19.749,3.5s5.348,12.138,5.348,12.138-5.76,1.852-6.583,0,1.851,5.554,1.234,7.2-6.171-1.852-6.171-1.852-6.377,6.377-9.874,5.966-4.937-2.058-4.937-2.058-7.611,1.028-5.349,2.058-4.526,0-4.526,0Z" transform="translate(-327.282 -4109.505)" fill="#555"/>
          <path id="Path_171" data-name="Path 171" d="M775.468,4179.043s.447,6.6-3.13,8.255c0,.137-.275,2.2,2.476,5.916s0,3.989,0,3.989h-2.476v1.926l.4,1.255-.4.533-.458.684-.544.279s-.254-.43-1.217.808-.946,1.393-.946,1.393-.826,6.053-7.842,0c-.55-.275-4.815,0-4.815,0s-2.614-8.393-9.355-6.879c-.413-.963-3.3-2.476-3.852-2.338s-.963-5.091,0-5.366,5.5-1.926,5.916-.963,5.916,2.477,8.255,0a23.415,23.415,0,0,1,6.329-4.265s9.768,7.154,5.366-5.228h6.294Z" transform="translate(-328.239 -4113.15)" fill="#fde9de"/>
          <path id="Path_217" data-name="Path 217" d="M0,25.66,44.023,51.414l13.5-8.676V9.64L44.023,0Z" transform="matrix(0.996, -0.087, 0.087, 0.996, 108.956, 457.637)" fill="#e29696"/>
          <path id="Path_218" data-name="Path 218" d="M57.581,45.309,44.345,53.985,0,28.278V0L44.345,24.743l13.236-7.712Z" transform="matrix(0.996, -0.087, 0.087, 0.996, 110.584, 483.622)" fill="#c57989"/>
          <ellipse id="Ellipse_16" data-name="Ellipse 16" cx="10.199" cy="10.607" rx="10.199" ry="10.607" transform="matrix(0.996, -0.087, 0.087, 0.996, 123.115, 497.76)"/>
          <path id="Path_219" data-name="Path 219" d="M28.92,0,0,17.674l11.568,7.391L36.954,9V5.462Z" transform="matrix(0.996, -0.087, 0.087, 0.996, 129.836, 460.326)" fill="#fff" stroke="#707070" stroke-width="1"/>
          <path id="Path_220" data-name="Path 220" d="M68.767,0,0,38.882,21.208,51.093,68.767,22.172Z" transform="matrix(0.996, -0.087, 0.087, 0.996, 103.045, 544.924)" fill="#8cbebc"/>
          <path id="Path_221" data-name="Path 221" d="M67.481,0,17.674,30.206,0,50.45l25.386-5.142,42.1-25.386Z" transform="matrix(0.996, -0.087, 0.087, 0.996, 108.471, 566.385)" fill="#91b777"/>
          <path id="Path_102" data-name="Path 102" d="M446.1,4388.288l24.622,13.917,463.215-267.1-25.375-16.591Z" transform="translate(-273.632 -4102.008)" stroke="#707070" stroke-width="1"/>
          <path id="Path_105" data-name="Path 105" d="M471.824,4690.061l-.68-277.417s-.278-5.828,4.255-7.123,453.127-266.669,453.127-266.669,9.116-3.184,12.6,0c.575.526-.708,5.331,0,6.184,1.855,2.226-.2,5.846-.2,10.107,0,11.659.2,263.68.2,263.68Z" transform="translate(-278.242 -4105.491)" fill="#414141" stroke="#707070" stroke-width="1"/>
          <path id="Path_106" data-name="Path 106" d="M494.447,4418.813v247.522l433.633-253.359V4169.362Z" transform="translate(-282.533 -4111.369)" fill="#0b072e" stroke="#707070" stroke-width="1"/>
          <path id="Path_107" data-name="Path 107" d="M471.14,4827.566v-74.834l470.19-272.848L942.362,4544s1.984,15.871-9.522,19.641c.4-.2-43.441,26-43.441,26l-127.137,74.912Z" transform="translate(-278.242 -4168.532)" fill="#e5e1e1" stroke="#707070" stroke-width="1"/>
          <path id="Path_108" data-name="Path 108" d="M591.02,4923.22l122.55,100.763-128.677-90.551s-8.851-10.212,0-10.212Z" transform="translate(-298.458 -4250.146)" fill="#7e7e7e"/>
          <path id="Path_109" data-name="Path 109" d="M580.958,4872.961l368.55-221.846s6.943-6.264,21.241,14.161c-1.362-1.362,117.277,95.348,117.277,95.348L721.739,4972.363s-7.489,3.4-12.255,0c-3.922-2.8-84.4-72.068-114.38-95.316C588.88,4872.219,580.958,4872.961,580.958,4872.961Z" transform="translate(-298.458 -4199.887)" fill="#edeef6" stroke="#707070" stroke-width="1"/>
          <path id="Path_128" data-name="Path 128" d="M733.214,4783.756s-2.426-23.327,21.459-20.34,15.675,21.646,15.675,21.646-2.052-.747-3.545-3.918-5.971,3.918-5.971,3.918-4.478,2.8-10.823,0-4.105,2.239-4.105,2.239-5.785,2.426-4.852-3.545-5.225,0-5.225,0L734.147,4786Z" transform="translate(-326.474 -4220.679)" fill="#090808"/>
          <path id="Path_130" data-name="Path 130" d="M756.659,4813.517a17.8,17.8,0,0,0,2.246,6.717c2.053,3.732,16.981,34.148,23.512,31.349s15.675-22.205,16.421-25.564c.553-2.488-5.947-3.179-11.623-5.176-1.048-.366-2.005-.914-3.256-1.282-.367-.1-1.106.2-1.579-.4-.746-.186-1.269,11.332-1.269,15.624s-9.33-12.5-15.115-16.608c0-.187,5.971-6.531,6.531-10.823s-2.986-.227-2.986-.227a28.231,28.231,0,0,0,0-7.013c-.226-1.45-1.055-2.753-1.866-3.023-.373.187-1.679,5.039-1.679,5.039v-2.656l-1.493-1.263-1.473,3.918a7.606,7.606,0,0,0-.226-2.656,2.349,2.349,0,0,0-.913-1.263l-1.12,2.318v-1.32l-2.53-1.659-.98,5.09-.6-.511-.53,5.225Z" transform="translate(-330.705 -4226.927)" fill="#fbddc7"/>
          <path id="Path_129" data-name="Path 129" d="M734.144,4790.036s2.986,7.277,5.971,6.718c-.187.373,0,8.583,0,8.583H743.1v2.612h1.12v1.12h1.493v2.053l3.359,1.12,2.612-1.12h1.12s-1.679-10.45,0-10.45,1.306,2.8,1.306,2.8v-5.6s.933-3.359,2.053,0,0,2.8,0,2.8l.933-2.8s.933-4.105,1.68,0,0,2.8,0,2.8l1.306-2.8s.187-3.918,1.866,0c-.747,2.053,0,2.053,0,2.053l1.12-3.172s0-3.732,2.053,0c0,0,.933,4.105,0,6.718s2.986,0,2.986,0,2.612-13.062,1.306-15.3-4.074-7.771-7.806-.308a2.413,2.413,0,0,1-1.374,1.3,8.55,8.55,0,0,1-4.068.871c-2.483.015-5.626-1.266-7.9-1.866a3.354,3.354,0,0,0-1.966,0s-1.78,1.508-.474,2.44-4.643,1.665-4.643-2.44a10.687,10.687,0,0,0,.189-2.542c-.056-.4-.918-.748-1.259-.816C738.595,4784.418,734.144,4790.036,734.144,4790.036Z" transform="translate(-326.658 -4224.533)" fill="#fbe7d8"/>
          <path id="Path_131" data-name="Path 131" d="M749.172,4815.516s3.38,11.214,8.978,7.482l-2.5-6.58-.451-.77h-1.615l-1.631.67Z" transform="translate(-329.425 -4228.687)" fill="#d2afa7"/>
          <path id="Path_132" data-name="Path 132" d="M748.727,4818.563s.347,8.422-2.266,11.968,0,12.689,0,12.689,5.225,5.225,8.77-2.426a34.258,34.258,0,0,0,2.055-5.666,19,19,0,0,0,.744-7.022v-2.985s-7.091,1.865-7.091-1.68A5.6,5.6,0,0,0,748.727,4818.563Z" transform="translate(-328.712 -4230.879)" fill="#fbddc7"/>
          <path id="Path_133" data-name="Path 133" d="M787.717,4819.043s-4.933-13.532,1.63-19.783c1.049-1,3.371-1.542,5.461-2.049,13.062-3.173,21.459,9.7,21.459,9.7s2.888,4.854-3.83,6.161-4.94,6.9-4.94,6.9l-3.172,5.785Z" transform="translate(-336.193 -4226.856)" fill="#e85528"/>
          <path id="Path_134" data-name="Path 134" d="M776.426,4766.568s2.239-6.159,15.675-3.546,14.928-5.411,15.675-5.038,24.818-2.986,25.565,17.541-19.78,16.234-19.78,16.234,14,9.89,2.239,20.713c-.746-.187-7.464,1.493-9.89,0s1.866-5.6,1.866-5.6,7.091-1.68,6.9-4.105-4.105-9.7-10.823-11.01-15.3-4.105-18.287,4.852-2.426-2.8-2.426-2.8l4.292-5.785s-1.061-5.184-8.152-5.371c-.758-.91.72-6.813,0-10.164a2.9,2.9,0,0,0-1.085-1.579A3.841,3.841,0,0,1,776.426,4766.568Z" transform="translate(-334.418 -4219.726)" fill="#3a466d"/>
          <path id="Path_135" data-name="Path 135" d="M828.29,4806.812s2.062-6.578-7.455-15.348c-.187-.559,21.777,7.137,19.538-21.786a20.6,20.6,0,0,0-9.769-9.989c-7.091-3.358,26.609,1.778,26.982,9.989a7.343,7.343,0,0,1,4.4,2.642c2.641,3.171,6.057,9.561,4.835,16.48-.077.449-1,1.072-1.209,1.778-.56.559-19.966,15.861-26.311,13.621.187,0-5.411,1.866-8.024,1.68S828.29,4806.812,828.29,4806.812Z" transform="translate(-342.617 -4219.85)" fill="#e85528"/>
          <path id="Path_136" data-name="Path 136" d="M836.437,4754.782s11.519-23.371,34.845-17.586c-.373-.374,5.6,0,5.6,5.785s10.076-3.732,17.914,2.052S903,4762.2,903,4762.2v7.091a8.449,8.449,0,0,1-7.091,7.65,112.946,112.946,0,0,0-15.861,5.226s-9.7,3.172-10.263,2.8-1.306-17.727-8.957-19.033c-1.63-.279-.5-1.414-2.291-3.158-1.441-1.4-5.811-3.41-8.158-4.68a24.651,24.651,0,0,0-4.966-1.636A54.274,54.274,0,0,0,836.437,4754.782Z" transform="translate(-345.489 -4215.731)" fill="#423a7b"/>
          <path id="Path_137" data-name="Path 137" d="M876.926,4723.917a10.5,10.5,0,0,1,6.9-5.488c4.981-1.149-13.6-5.938-9.578-19.156.766-.575-.383-8.429-2.874-15.708s-1.532-7.662-1.532-7.662,2.682-7.471,5.172-6.514,6.9,14.176,6.9,14.176,15.517,31.8,22.03,32.374-2.873,16.284-2.873,16.284-10.728-2.491-14.75,0-3.256-2.874-3.256-2.874Z" transform="translate(-351.605 -4203.402)" fill="#fee6dd"/>
          <path id="Path_138" data-name="Path 138" d="M866.377,4667.2s-5.364.575-8.237-8.237v-26.436s7.663-13.792,16.091-8.045,0,18.965,0,18.965-2.682,11.3-1.149,13.984S866.377,4667.2,866.377,4667.2Z" transform="translate(-349.485 -4194.894)"/>
          <path id="Path_139" data-name="Path 139" d="M910.853,4737.354c-1.545-.812-1.82.127,0-1.417,2.895-2.47,11.146-7.376,18.432-5.671,1.891.237,3.781.709,4.49-3.308s-1.891-14.887,10.161-24.575,9.925-14.416,9.925-14.416,11.815-7.8,9.925,2.127-15.6,37.572-18.668,40.171a4.384,4.384,0,0,0-1.182,5.671s-16.777,21.74-23.394,21.977l-4.253,1.182S915.343,4739.717,910.853,4737.354Z" transform="translate(-358.956 -4206.302)" fill="#fee6dd"/>
          <path id="Path_140" data-name="Path 140" d="M974.487,4681.633s-5.907-5.436-12.76-1.418c.473-1.89-5.2-9.688,1.891-13.469a33.989,33.989,0,0,0,2.363-5.2s9.216-2.126,12.052,1.418,3.013,2.836,4.017,3.781,14.178-1.418,16.069,0,13.233,6.38,7.325,11.579c-.945.236-10.634-2.836-15.6,0s-9.452,2.6-11.815,3.308S974.487,4681.633,974.487,4681.633Z" transform="translate(-368.24 -4201.857)"/>
          <path id="Path_141" data-name="Path 141" d="M777.361,4787.808s-.526,14.48,0,15.157,6.952-4.4,6.952-4.4,5.667-5.754,2.623-6.768c-.889-.3-1.154-2.355-2.623-2.96A20.9,20.9,0,0,0,777.361,4787.808Z" transform="translate(-334.571 -4225.217)" fill="#d2afa7"/>
          <path id="Path_142" data-name="Path 142" d="M797.78,4833.241S916.944,4820.2,927.215,4739.8c0-.189-1.843-.01-2.754,1.444-.615.982-.746,2.848-1.864,4.692-4.57,7.544-14.756,20.421-24.171,22.629-.93.221-1.414.839-2.571.707,0,1.23.581,6.708-10.913,9.581a242.345,242.345,0,0,0-23.4,7.389,73.112,73.112,0,0,1-14.254,10.688c-2.334,1.295-4.889,2.921-7.734,3.663-1.46.38-3.233-.012-4.8.326a43.328,43.328,0,0,1-7.9,1.3c-2.664.117-2.768.57-2.768.57s-1.132,6.029-4.827,6.029a61.109,61.109,0,0,0-9.712,1.281l-1.646,2.351-10.123,20.1Z" transform="translate(-338.373 -4216.368)" fill="rgba(180,183,186,0.74)"/>
          <path id="Path_143" data-name="Path 143" d="M490.337,4404.565s-4.375,4.678,8.3,3.569c.409-.116,6.948-.642,6.948-.642s9.809,1.459-.759,4.554a52.4,52.4,0,0,1-5.255,0l4.73,4.2s5.547,5.313-1.46,2.745-4.2-1.752-4.2-1.752l3.5,4.029s1.46,7.649-3.153,2.277-4.671-3.912-4.671-3.912l1.635,3.153s2.044,9.342-1.985,2.8-4.2-5.6-4.2-5.6-.876.875-.467,3.1-2.16,6.948-3.036,1.576-.993-6.189-.993-6.189-1.226,1.226-1.576-2.511-.584-4.438,0-6.773,0-8.175,0-8.175h0s-3.6-21.847,5.605-31.644c-.594-1.633.494-14.967,2.944-18.505,1.6-2.314,10.04-.672,10.04-.672a19.4,19.4,0,0,1,3.382,0c.649.082,1.041.772,1.5,0,1.077,1.36-6.6,20.811-8.175,21.627.327-.272-4.012,23.948-8.646,27.759C490.873,4400.12,490.337,4404.565,490.337,4404.565Z" transform="translate(-280.424 -4144.553)" fill="#fee5d9"/>
          <path id="Path_144" data-name="Path 144" d="M493.82,4342.7s-6.259-9.96,0-9.233c1.193-.456.692-3.538.809-6.325.056-1.254,1.133-2.441.728-3.117a4.573,4.573,0,0,1,0-4,18.685,18.685,0,0,1,3.57-7.13c2.437-2.765,6.636-4.21,11.321-1.586.363.364-1.09,6.538,4.722,12.712s3.6,3.117,3.6,3.117c-4-3.631-3.6,6.325-3.6,6.325s-2.906,9.024-6.538,9.233C508.432,4342.55,493.82,4342.7,493.82,4342.7Z" transform="translate(-281.905 -4137.246)" fill="#8d2e2e"/>
          <path id="Path_147" data-name="Path 147" d="M539.6,4317.118s17.323-2.051,18.741-12.182-1.62-42.078-16.309-42.99-25.225-1.279-29.986,15.132-2.026,16.411-2.026,16.411-18.133,4.052-18.639,12.156.405,8.206.405,8.206,2.229,1.722,3.242,0c-.2-.71,3.039-12.359,7.5-11.448.2-.3,5.47-2.836,7.5,0s-.81,13.271,9.32,15.2A54.976,54.976,0,0,0,539.6,4317.118Z" transform="translate(-281.94 -4128.348)" fill="#090d80"/>
          <path id="Path_148" data-name="Path 148" d="M510.65,4290s-.918-20.771,10.217-28.242a14.235,14.235,0,0,1,3.811-2.01,10.444,10.444,0,0,1,2.267-.416c18.842-1.621,14.284-1.114,14.284-1.114a73.858,73.858,0,0,1-2.659-10.456c-.308-1.947-.94-3.94,0-5.075,2.938-3.546-20.184,15.018-20.184,15.018a21.509,21.509,0,0,1-13.753-1.842c-6.99-3.545-7.977,5.292-7.977,5.292a14.952,14.952,0,0,1,1.317,14.688c-3.748,8-3.951,21.374-3.951,21.374Z" transform="translate(-282.454 -4124.785)" fill="#8d2e2e"/>
          <path id="Path_149" data-name="Path 149" d="M567.356,4354.727s6.251,6.327,6.251,9.491V4376.7s4.042,8.789,4.569,0,1.055-7.381,1.055-7.381,6.679-.878,12.83,5.1,4.585-.865,4.585-.865,3.17,1.962,3.321.6a4.133,4.133,0,0,0-1.107-2.718s3.372,2.365,3.674,1.208-4.982-7.548-4.982-7.6-12.128-6.24-15.55-6.14-9.863-12.229-9.36-16c.493-3.7-3.4-17.471-7.246-19.526.154.067-.3-.527-.372-.558l-4.754,2.673-11.527,3.09c-.6-.452,15.906,3.509,18.615,11.824S567.356,4354.727,567.356,4354.727Z" transform="translate(-292.525 -4139.617)" fill="#fee5d9"/>
          <path id="Path_150" data-name="Path 150" d="M489.863,4219.5s26,14.184-5.208,28.367c.567-.567,4.539,4.539,11.347,0s11.347,0,11.347,0,13.049,1.135,21.559-9.077,8.51-5.674,8.51-5.674l17.588-34.607s-3.971-15.885-17.588-15.318c-2.269,1.7-35.742,32.905-41.416,32.338S489.863,4219.5,489.863,4219.5Z" transform="translate(-280.73 -4113.912)" fill="#86d277"/>
          <path id="Path_153" data-name="Path 153" d="M470.726,4256.528s10.314-4.832,14.416-11.348c3.024-4.8,2.955-11.428-8.618-16.97-.739.37-22.021,12.228-28.674,12.966s-9.979,7.023-9.979,7.023-17.741,2.982-22.176,8.328c-1.478-.2-6.283,0-6.283,0s3.7,7.194,0,7.564,17.741,4.065,33.634,0c1.478-.37.37-3.67,9.61-7.564S470.726,4256.528,470.726,4256.528Z" transform="translate(-266.801 -4122.202)" fill="#fee5d9"/>
          <path id="Path_146" data-name="Path 146" d="M534.187,4360.1v-6.536L536,4349.32v-2.654l-3.632-7.627c-.363-.726,3.632-8.717,3.632-8.717h-10.9s0,7.627-3.632,6.9,3.632,0,3.632,0-5.811,2.18,0,9.443c.726,1.09,1.453,8.717,7.264,10.533C532.734,4357.925,534.187,4360.1,534.187,4360.1Z" transform="translate(-287.321 -4140.999)" fill="#fee5d9"/>
          <path id="Path_145" data-name="Path 145" d="M538.3,4330.075s-6.174,7.024-1.816,13.924a11.908,11.908,0,0,1,1.267,1.787,7.026,7.026,0,0,1,0,5.864,5.977,5.977,0,0,1-1.267,1.792s-1.09,17.07,13.438,12.711,15.528-12.253,15.528-12.253l.3-1.248.3-3.743v-3.123l-1.231-3.24a1.308,1.308,0,0,0,0-1,13.461,13.461,0,0,0-1.74-2.912,21.369,21.369,0,0,0-14.967-8.554C536.851,4329.108,538.3,4330.075,538.3,4330.075Z" transform="translate(-289.985 -4140.875)"/>
          <path id="Path_155" data-name="Path 155" d="M756.544,4287.8a27.392,27.392,0,0,1-2.095-13.552c.623-4.536,3.484-9.407,9.964-11.957,1.148.892,28.624,11.757,29.459,22.2.418,1.671,4.6,7.52,0,17.546.418,1.252-3.342,17.545-7.1,25.9s0,9.608,0,9.608-4.177,18.38-13.368-3.343c.418-.417,3.342-8.354,2.089-12.949s1.253-23.812,5.013-24.647-15.874-.417-17.545-7.1h-4.6Z" transform="translate(-330.362 -4128.476)" fill="#fce8de"/>
          <path id="Path_156" data-name="Path 156" d="M727.546,4309.444s4.248-12.537,10.8-15.369c1.749-.762,4-1.6,6.3,0a34.378,34.378,0,0,1,12.561,15.369s13.368,16.657,6.684,25.847c1.671,1.254,2.089,15.04,2.089,15.04s.418,10.861,5.431,11.7-6.684,13.367-12.115,4.6-4.177-16.292-4.177-16.292-10.861-7.1-8.355-22.976c0-1.253-17.545-15.874-17.545-15.874Z" transform="translate(-325.444 -4134.159)" fill="#fce8de"/>
          <path id="Path_157" data-name="Path 157" d="M764.989,4381.458s-.327,7.848,8.5,14.061a25.163,25.163,0,0,0,17.659,4.578s6.213,0-3.924-12.426-8.5-9.483-8.5-9.483-3.924,10.791-10.137,4.905S764.989,4381.458,764.989,4381.458Z" transform="translate(-332.236 -4149.755)"/>
          <path id="Path_158" data-name="Path 158" d="M777.653,4350.087s-5.889,8.559-1.311,12.81c2.193,2.037,10.3,12.856,16.351,15.1,6.117,2.273,10.124-4.126,10.464-4.638.654-.981,6.54-.327-10.464-14.062.327-.981-2.616-4.251-1.962-5.232s-4.578,10.465-9.483,2.29S777.653,4350.087,777.653,4350.087Z" transform="translate(-334.106 -4144.602)"/>
          <path id="Path_159" data-name="Path 159" d="M718.849,4257.617a36.4,36.4,0,0,0-2.943,13.735c-.327,8.5,1.635,24.2,0,33.682,0,.327,16.55,7.318,11.645,21.707-.327.98-8.375,7.724-13.28-2.74s-1.962-6.54-6.867-10.464-3.27-55.919-3.27-55.919l7.848,2.29Z" transform="translate(-321.085 -4127.615)" fill="#f6dbce"/>
          <path id="Path_160" data-name="Path 160" d="M701.224,4267.637v21.255s-7.31-14.388-1.453-21.255A1.744,1.744,0,0,0,701.224,4267.637Z" transform="translate(-319.912 -4129.459)" fill="#888"/>
          <path id="Path_161" data-name="Path 161" d="M703.539,4247.8s-4.644-27.795,2.551-30.412c.654-.981,8.829-14.061,13.407-12.753.664.19,1.716-.81,2.559,0,3.745,3.576,7.027,15.143,7.027,15.143s-2.312,21.794-8.2,22.448c-.327.654,0,4.685,0,4.685l-10.544,3.506Z" transform="translate(-320.753 -4117.804)" fill="#e12ebd"/>
          <path id="Path_162" data-name="Path 162" d="M734.019,4190.485l-7.848,8.829s13.407,6.541,7.848,24.526-12.426,19.62-12.426,19.62v-6.213s7.521-9.81,8.5-19.948c.654-.654-5.886-18.312-8.5-16.678a102.56,102.56,0,0,0-8.5,6.868s-8.175-1.308,1.635-10.791,16.677-12.427,16.677-12.427Z" transform="translate(-322.195 -4114.113)"/>
          <path id="Path_163" data-name="Path 163" d="M718.031,4261.387s15.161,3.121,18.758-2.112a13.622,13.622,0,0,1,1.732-1.267c1.217-.949,2.752-3.137,4.732-5.2a75.662,75.662,0,0,0,5.915-7.225,12.482,12.482,0,0,0,1.3-2.338s4.5-8.946,5-13.808a162.931,162.931,0,0,0,.79-22.634H752.4s-3.479,9.554-5.114,7.919-10.137-10.792-9.156-13.408c.524-1.4.634-5.523,0-8.424a5.745,5.745,0,0,0-1.635-3.066l-8.778,10.612s6.816,6.438,8.778,14.286c0,0-2.283,16.381-6.818,22.494-.521.707-.21,1.729-1.03,2.03,1.308.982-7.408,5.914-7.408,5.914l-1.69,5.28Z" transform="translate(-323.692 -4115.136)" fill="#e12ebd"/>
          <path id="Path_164" data-name="Path 164" d="M719.746,4298.834l5.76,5.144s7.406-19.955,16.251-17.485,10.9,1.028,10.9,1.028-13.783-16.251,5.349-26.743c.411.617-3.26-4.386-7.786-5.21.823-.206-11.14,15.7-14.637,16.319s-15.634,2.468-17.28,1.028C718.1,4272.3,719.746,4298.834,719.746,4298.834Z" transform="translate(-323.739 -4127.238)" fill="#888"/>
          <path id="Path_166" data-name="Path 166" d="M761.925,4241.25s3.069-14.685,2.246-15.919,2.074,2.958,5.571-.539,2.674,0,2.674,0,8.434,25.509,7.611,32.092c-.206.822,5.966,8.64,8.023,7.405s9.463,8.023,9.463,8.023v7.817s-4.937-13.167-12.137-14.195c.411,0-17.074-9.051-17.074-9.051s1.851-4.731-2.469-9.669S761.925,4241.25,761.925,4241.25Z" transform="translate(-331.771 -4121.286)" fill="#f6dbce"/>
          <path id="Path_172" data-name="Path 172" d="M1101.635,4305.874c.733,3.3-21.25-8.426-19.052,37.738.366.366-1.832,6.229-7.328,5.5s13.923,12.09,26.38-12.823c.733-.367-2.931-20.151,0-22.35s6.229,5.862,6.229,5.862h3.664s-4.03-18.686-3.664-26.013C1108.23,4292.685,1100.9,4302.577,1101.635,4305.874Z" transform="translate(-389.277 -4134.257)" fill="#d99871"/>
          <path id="Path_173" data-name="Path 173" d="M1105.735,4287.192s4.4,3.372,7.328,3.372,3.664,20.518,3.664,20.518-2.931,9.892-1.832,13.189c.914,2.744,11.333,12.7,14.52,5.76.531-1.146-.231-2.806-.231-5.76,0-17.586-5.129-26.379-5.129-26.379l-5.5-10.7s3.3-7.986,2.2-11.65,0-9.16,0-9.16-2.931-4.763-4.03,0,0,9.16-1.832,9.16-7.328-6.961-7.328-6.961-8.061-5.128-1.832,2.565,4.03,4.4,4.03,4.4l-5.862-4.4s-6.961-3.665-1.832,4.4c1.1.733,5.5,2.932,5.5,2.932l-6.961-2.932s-7.694-2.564-1.832,2.932,5.129,3.3,5.129,3.3h-5.129Z" transform="translate(-393.377 -4128.839)" fill="#edc5bc"/>
          <path id="Path_174" data-name="Path 174" d="M1126.451,4279.743s12.091-4.4,12.457,10.259c.366.733-5.862.732-7.328,0s2.2,2.931,2.2,2.931h-4.763l2.565,4.763h-5.129L1123.52,4290Z" transform="translate(-398.338 -4131.575)" fill="#d99871"/>
          <path id="Path_176" data-name="Path 176" d="M1152.259,4286.3s10.259-44.7,15.022-51.659c.366-1.832-4.4-17.954-8.06-23.083s2.931-6.229,5.5,0a44.051,44.051,0,0,0,5.5,9.894s5.129-10.626,5.129,0-1.1,11.357-2.565,13.189,2.2,15.389,0,26.013-9.526,29.311-5.5,34.074-12.823,0-12.823,0Z" transform="translate(-403.629 -4118.351)" fill="#edc5bc"/>
          <path id="Path_175" data-name="Path 175" d="M1139.2,4293.181s9.833,9,12.031,21.459c.366,1.833-3.736,9.146-8.132,8.78-1.02-.085-2.01.222-3.19.121a35.427,35.427,0,0,1-5.165-.84s-4.4-22.716-7.328-23.815,4.763,0,4.763,0l-3.232-4.03h5.8l-4.4-3.3h0Z" transform="translate(-398.932 -4133.863)" fill="#fee8de"/>
          <path id="Path_177" data-name="Path 177" d="M1155.822,4314.681s1.646,7.2-.536,7.2,10.91,6,10.91,6l1.227-11.046Z" transform="translate(-404.141 -4138.12)" fill="#459455"/>
          <path id="Path_178" data-name="Path 178" d="M1152.259,4327.1s13.017,12.41,16.29,12.273-1.909-9.138-1.909-9.138l-12-5.728Z" transform="translate(-403.629 -4139.929)"/>
          <path id="Path_179" data-name="Path 179" d="M1136.157,4328.968s.795,5.045.314,6.136a5.605,5.605,0,0,0,0,2.581c1.126,2.469,7.021,9.168,11.1,8.236,4.773-1.092,4.856-9.169,4.311-9.578a21.228,21.228,0,0,1-2.8-6.035c-.162-.589-.587-2,0-2.214,1.109-.41-2.561,2.088-6.524,2.214A18.943,18.943,0,0,1,1136.157,4328.968Z" transform="translate(-400.665 -4140.581)" fill="#d6b5a9"/>
          <path id="Path_180" data-name="Path 180" d="M1131.312,4341.779s12.771,25.367-5.777,29.731-8.319-32.731-8.319-32.731l-1.091-4.91s-18.411,29.867,1.091,48.551c.409.682,9.547,4.365,10.229.682s-3-5.864-3-5.864,13.775-1.5,14.047-13.775-1.228-18.412-1.228-18.412l-5.952-6.273-.731,3.818Z" transform="translate(-395.528 -4141.652)"/>
          <path id="Path_181" data-name="Path 181" d="M1140.953,4343.946s9,6.819,9.137-6.683c-.546-.136-4.91-10.228-1.637-8.456s14.865,13.093,16.229,11.184,6,5.592,5.728,10.092-1.091,10.228-3.819,14.319c-1.416,2.124-.394,8.22,0,14.457a102.138,102.138,0,0,1,0,10.91s6.418,9.343,2.6,16.026-11.464,7.431-11.464,7.431a26.5,26.5,0,0,1-9.625-.79c-8.61-2.476-19.865-9.126-16.56-19.667.409-.546,3.955-5.864,1.5-10.228s-2.591-3.682-2.591-3.682l-2.157-3.009s13.175-2.526,13.865-14.8a19.7,19.7,0,0,1,0-2.913c.052-.317.71-1.146.565-1.785C1139.043,4340.127,1140.953,4343.946,1140.953,4343.946Z" transform="translate(-399.217 -4140.682)" fill="#459455"/>
          <path id="Path_182" data-name="Path 182" d="M1128.6,4408.254s-18.6,10.146-11.837,30.72c0,13.246,3.664,9.3,1.409,19.446s-1.409,11.273-1.409,11.273,20.574,16.063,25.365,6.2.846-12.119,10.428-9.3,32.129,3.945,27.62-10.71-15.219-32.411-13.246-35.511-7.891,18.038-32.693,0c-5.919-9.864-3.946-3.664-3.946-9.582s-1.691,0-1.691,0Z" transform="translate(-396.821 -4155.329)" fill="#0b072e"/>
          <path id="Path_183" data-name="Path 183" d="M1151.634,4482.779s3.664,7.61,7.328,9.019a20,20,0,0,1,6.764,5.073s11.837,7.608,14.092-2.819,1.409-11.273,1.409-11.273v-3.1s-12.043,1.569-20.656,0c-2.188-.4-4.442-.831-5.837-1.973.1.408-1.805.2-2.463,1.231C1151.484,4480.184,1151.634,4482.779,1151.634,4482.779Z" transform="translate(-403.512 -4168.131)" fill="#f0bfb2"/>
          <path id="Path_184" data-name="Path 184" d="M1115.687,4444.806s.215,8.7,1.906,13.777-3.033,14.406-1.906,18.352-11.273-.845-6.2-14.655c-2.255-5.919-2.255-16.628,1.127-17.474S1115.687,4444.806,1115.687,4444.806Z" transform="translate(-395.465 -4162.006)"/>
          <path id="Path_185" data-name="Path 185" d="M1113.135,4485.026s15.168,8.109,15.944,7.333-4.77,14.388-15.944,10.7c.171.485-7.3.582-13.986,10.376-2.181,3.192-3.542,4.12-5.186,2.271-2.921-3.266-4.494-14.331-.638-15.05a13.509,13.509,0,0,0,8.442-5.258s9.405-11.645,11.806-11.159S1113.135,4485.026,1113.135,4485.026Z" transform="translate(-392.358 -4169.332)" fill="#f0bfb2"/>
          <path id="Path_186" data-name="Path 186" d="M1098.621,4498.248s-2.036,5.431-7.078,4.557-.776,15.03-.776,15.03l3.782.873s-1.552,22.109-8.921,20.169-7.466-14.836-7.466-14.836,2.521-10.666,6.982-15.32a11.549,11.549,0,0,0,3.3-9.891s5.042-3.394,7.66-1.939A26.319,26.319,0,0,0,1098.621,4498.248Z" transform="translate(-389.988 -4171.597)"/>
          <path id="Path_187" data-name="Path 187" d="M1118.52,4339.529s8.328,8.027,11.885,5.826c.458-.266,1.724.1,1.867-1.1.868-7.233,11.663,26.622-3.382,27.779-1.188.092-2.73.951-3.962.933-10.014-.143-10.068-7.324-9.787-15.73.023-.678.929-1.325.929-2.276a63.6,63.6,0,0,1,.586-10.705A14.042,14.042,0,0,1,1118.52,4339.529Z" transform="translate(-396.782 -4142.694)" fill="#459455"/>
          <path id="Path_188" data-name="Path 188" d="M1136.727,4686.327s21.5-37.639,69.125-26.481S1268.989,4714,1268.989,4714s-7.62,18.777-27.759,20.683-31.568-4.626-31.568-4.626-23.132-18.506-38.373-24.221S1136.727,4686.327,1136.727,4686.327Z" transform="translate(-400.769 -4201.281)" fill="#ebebeb"/>
          <path id="Path_189" data-name="Path 189" d="M1241.441,4741.763s-21.5,8.361-47.9-6.062-48.714-25.583-52.251-31.025a41.61,41.61,0,0,1-4.9-10.341s27.842,13.769,44.359,22.86c6.3,3.468,9.377,6.142,10.614,5.987-.444.532,3.68,3.159,6.8,5.171,5.826,3.752,13.607,10.069,13.607,10.069Z" transform="translate(-400.708 -4208.01)" fill="#8ec0bc"/>
          <path id="Path_190" data-name="Path 190" d="M1166.324,4669.3s21.9,1.6,24.947,11.334" transform="translate(-409.482 -4204.218)" fill="none" stroke="#707070" stroke-width="1"/>
          <path id="Path_191" data-name="Path 191" d="M1042.693,4917.133l169.146-99.847s63.373,66.108,0,106.686S1042.693,4917.133,1042.693,4917.133Z" transform="translate(-383.459 -4230.644)" fill="#e4e4e4"/>
          <path id="Path_192" data-name="Path 192" d="M1124.276,4921.242l80.7-46.96s43.313,21.885-7.295,50.607c.912.911-44.68,13.678-62.917,0C1135.218,4925.345,1124.276,4921.242,1124.276,4921.242Z" transform="translate(-398.477 -4241.137)" fill="none"/>
          <path id="Path_193" data-name="Path 193" d="M1134.865,4925.8l72.491-42.4s21.428,12.766,11.854,21.428c-.912.456,14.134-14.133-14.589-30.546-.456.912-79.786,46.5-79.786,46.5Z" transform="translate(-398.58 -4241.137)" fill="#bbb"/>
          <path id="Path_194" data-name="Path 194" d="M1061.692,4925.676,1224,4829.021l2.735,5.928-157.292,93.464Z" transform="translate(-386.956 -4232.804)" fill="#070707"/>
          <path id="Path_195" data-name="Path 195" d="M1130.956,4963.511l8.683-12.675h4.559l-7.295,13.678Z" transform="translate(-397.259 -4256.045)"/>
          <path id="Path_196" data-name="Path 196" d="M0,10.486,7.751,0H12.31L5.015,13.677Z" transform="translate(804.4 696.198) rotate(-60)"/>
          <path id="Path_200" data-name="Path 200" d="M0,11.076,8.041,0H12.6L5.229,13.817Z" transform="matrix(-0.559, -0.829, 0.829, -0.559, 847.235, 651.236)"/>
          <path id="Path_203" data-name="Path 203" d="M0,10.846,8.151,0H12.71L4.972,14.262Z" transform="matrix(-0.829, -0.559, 0.559, -0.829, 846.015, 633.453)"/>
          <path id="Path_201" data-name="Path 201" d="M0,10.486,7.751,0H12.31L3.959,14.71Z" transform="translate(842.292 672.502) rotate(-114)"/>
          <path id="Path_202" data-name="Path 202" d="M0,10.883,8.018,0h4.559L4.635,14.7Z" transform="translate(822.426 687.583) rotate(-77)"/>
          <path id="Path_197" data-name="Path 197" d="M0,11.236,8.163,0h4.559L5.255,14Z" transform="matrix(0.809, -0.588, 0.588, 0.809, 780.406, 699.142)"/>
          <path id="Path_198" data-name="Path 198" d="M1129.771,4963.9l9.65-13.063h4.559l-7.406,14.679Z" transform="translate(-419.887 -4260.94)"/>
          <path id="Path_199" data-name="Path 199" d="M0,11.43,8.03,0H12.59L5.3,13.677Z" transform="matrix(0.921, -0.391, 0.391, 0.921, 755.85, 699.481)"/>
          <path id="Path_204" data-name="Path 204" d="M1209.34,4884.895l-71.051,42.2s63.692,22.584,86.023-26.39c-.508-1.015-7.359-12.586-12.941-15.809S1209.34,4884.895,1209.34,4884.895Z" transform="translate(-401.057 -4242.826)" fill="#fff"/>
          <g id="Ellipse_13" data-name="Ellipse 13" transform="translate(526.335 729.107)" fill="#7e1a1a" stroke="#707070" stroke-width="1">
            <ellipse cx="7.5" cy="9" rx="7.5" ry="9" stroke="none"/>
            <ellipse cx="7.5" cy="9" rx="7" ry="8.5" fill="none"/>
          </g>
          <g id="Ellipse_14" data-name="Ellipse 14" transform="translate(531.335 733.107)" fill="#4e4e4e" stroke="#707070" stroke-width="1">
            <ellipse cx="3" cy="4.5" rx="3" ry="4.5" stroke="none"/>
            <ellipse cx="3" cy="4.5" rx="2.5" ry="4" fill="none"/>
          </g>
          <path id="Path_205" data-name="Path 205" d="M889,4964.214s8.751-.438,7.108,13.258,208.176-118.333,208.176-118.333l16.983-18.078-26.844,3.287Z" transform="translate(-355.166 -4235.021)" fill="#ffc46f" stroke="#707070" stroke-width="1"/>
          <g id="Ellipse_15" data-name="Ellipse 15" transform="translate(453.504 299.556) rotate(-17)" fill="#4f9e00" stroke="#707070" stroke-width="1">
            <circle cx="27.741" cy="27.741" r="27.741" stroke="none"/>
            <circle cx="27.741" cy="27.741" r="27.241" fill="none"/>
          </g>
          <path id="Path_207" data-name="Path 207" d="M832.564,4453.718l-1.933,31.34,29.018-7.021s-3.422-19.214-21.517-23.837c-.613-.158-1.467-.337-2.353-.482C840.46,4453.23,832.564,4453.718,832.564,4453.718Z" transform="translate(-344.42 -4163.675)" fill="#fef734" stroke="#707070" stroke-width="1"/>
          <path id="Path_208" data-name="Path 208" d="M892.074,4421.045l.071.479,6.43,43.516,70.674-38.848v-5.148l-67.4,36.507-5.617-36.507Z" transform="translate(-355.731 -4157.7)"/>
          <path id="Path_209" data-name="Path 209" d="M0,3.011,7.992,0l-.15,26.134L.322,29.149Z" transform="translate(547.895 268.015) rotate(-7)" fill="#ed8b63"/>
          <g id="Path_212" data-name="Path 212" transform="translate(586.03 247.116) rotate(-11)" fill="#e85528">
            <path d="M 0.7187542915344238 27.70023536682129 L 0.5032786130905151 2.311712741851807 L 6.811520099639893 0.6488747596740723 L 6.811520099639893 26.51308250427246 L 0.7187542915344238 27.70023536682129 Z" stroke="none"/>
            <path d="M 6.311520099639893 1.297756195068359 L 1.006557464599609 2.696132659912109 L 1.213628768920898 27.09440803527832 L 6.311520099639893 26.10110282897949 L 6.311520099639893 1.297756195068359 M 7.311520099639893 0 L 7.311520099639893 26.9250602722168 L 0.2238798141479492 28.30606079101563 L 0 1.927299499511719 L 7.311520099639893 0 Z" stroke="none" fill="#707070"/>
          </g>
          <g id="Path_210" data-name="Path 210" transform="matrix(0.985, -0.174, 0.174, 0.985, 561.902, 273.392)" fill="#459455">
            <path d="M 0.5891516208648682 16.28658294677734 L 0.5023494958877563 2.915765047073364 L 7.271531105041504 0.6840561628341675 L 7.703060150146484 13.92969799041748 L 0.5891516208648682 16.28658294677734 Z" stroke="none"/>
            <path d="M 6.793546676635742 1.368117332458496 L 1.004703044891357 3.27662181854248 L 1.084677219390869 15.59568405151367 L 7.191154956817627 13.5725679397583 L 6.793546676635742 1.368117332458496 M 7.749505996704102 1.9073486328125e-06 L 8.21495532989502 14.28683185577393 L 0.09362602233886719 16.97748184204102 L -3.814697265625e-06 2.554911613464355 L 7.749505996704102 1.9073486328125e-06 Z" stroke="none" fill="#707070"/>
          </g>
          <g id="Path_211" data-name="Path 211" transform="matrix(0.988, -0.156, 0.156, 0.988, 572.36, 246.128)" fill="#4f9e00">
            <path d="M 0.5045086145401001 36.12550354003906 L 0.7263392210006714 2.671196937561035 L 6.583723545074463 0.696240246295929 L 6.583723545074463 34.26204681396484 L 0.5045086145401001 36.12550354003906 Z" stroke="none"/>
            <path d="M 6.083723545074463 1.392490386962891 L 1.223964691162109 3.031074523925781 L 1.009013652801514 35.44790267944336 L 6.083723545074463 33.89235305786133 L 6.083723545074463 1.392490386962891 M 7.083723545074463 0 L 7.083723545074463 34.63174819946289 L 3.337860107421875e-06 36.80311965942383 L 0.2287135124206543 2.311328887939453 L 7.083723545074463 0 Z" stroke="none" fill="#707070"/>
          </g>
          <path id="Path_213" data-name="Path 213" d="M580.1,4494.271s-17.3,44.831,21.928,37.359,105.539-62.576,105.539-62.576,42.029-56.039-14.943-44.831c-16.978,3.34-29.221-10.454-37.359-10.273-18.555.41-22.712,17.379-75.164,80.321" transform="translate(-297.601 -4156.394)" fill="#a2eae7" stroke="#707070" stroke-width="1"/>
          <path id="Path_214" data-name="Path 214" d="M994.36,4598.346s43.1-23.88,43.1-27.374,2.912-17.473,2.912-17.473l79.209,48.341s9.319,6.989-5.824,12.231a81.9,81.9,0,0,0-25.044,13.978l-30.868-13.978-33.632-19.422-7.72-4.458v16.891Z" transform="translate(-374.561 -4182.084)" fill="#87c4e7"/>
          <path id="Path_215" data-name="Path 215" d="M1020.383,4618.315l63.942,37.72s11.507,4.518,15.584-1.889,29.178-15.328,29.178-15.328v-22.851s-35.371,11.705-35.371,17.53-73.333-36.311-73.333-36.311Z" transform="translate(-379.352 -4190.126)" fill="#eb8da2"/>
          <path id="Path_216" data-name="Path 216" d="M990.343,4614.631l91.223,50.67s19.22,1.747,20.385-4.077,20.967-16.308,20.967-16.308l-2.4-3.394s-28.664,10.227-31.143,17.625c-.125.345-1.754-.208-1.579.316.384,1.152.821-.253-2.4-.316-.247-.119-1.1.25-1.642,0-7.04-3.236-19.155-10.438-31.7-17.625-19.052-10.917-38.637-22.232-38.637-22.232v-4.66l-20.082-7.469-2.18,7.469Z" transform="translate(-373.822 -4191.962)" fill="#8ec0bd"/>
          <g id="Group_4" data-name="Group 4" transform="translate(201.826 717.873)">
            <g id="Ellipse_18" data-name="Ellipse 18" transform="translate(9.509 0.234)" fill="#fff" stroke="#707070" stroke-width="1">
              <ellipse cx="23" cy="14.5" rx="23" ry="14.5" stroke="none"/>
              <ellipse cx="23" cy="14.5" rx="22.5" ry="14" fill="none"/>
            </g>
            <ellipse id="Ellipse_17" data-name="Ellipse 17" cx="19.5" cy="10.5" rx="19.5" ry="10.5" transform="translate(14.509 4.234)"/>
            <path id="Path_223" data-name="Path 223" d="M402.963,4967v30s29.679,18.6,45.462-1.973c0-.563.769-25.03.769-25.03s-15.642,26.368-40.877,5.431c-1.393-1.155-2.521-3.269-4.139-4.92.69.415-.638-.466-1.214-1.654A2.888,2.888,0,0,1,402.963,4967Z" transform="translate(-393.239 -4952.417)" fill="#909396"/>
            <path id="Path_224" data-name="Path 224" d="M400.568,4989.607s-19.8,12.4-2.191,19.492,44.148,1.314,44.148,1.314,6.894-10.085,4.266-10.874-5.369,9.113-22.976,8.325-23.247-9.161-23.247-9.161Z" transform="translate(-391.082 -4956.578)" fill="#8ebfbc"/>
          </g>
          <path id="Path_226" data-name="Path 226" d="M1.879,26.5S3,30.415,5.225,32.561a9.258,9.258,0,0,0,8.991,1.987c2.349-.829,4.568-.1,7.1,0,2.164.081,4.636-.438,6.828,0,4.265.853,8.994-6.507,8.994-6.507l1.718-8.861-1.33-4.818s-5.556-9.951-3.281-10.8-20.6.284-20.032,0S3.8-3.013,3.236,1.821,0,16.069,0,16.069Z" transform="matrix(0.996, -0.087, 0.087, 0.996, 49.01, 283.606)" fill="#f9bb94"/>
          <path id="Path_225" data-name="Path 225" d="M.5,29.017S-3.48,2.065,11.019,1.781c.284-.284,17.627-5.4,22.745,3.127s5.118,13.078,5.118,13.078v9.382s-4.549.853-5.118-11.088c-.284.284-16.774,3.412-20.754,0s-9.666-3.127-9.1,0S.5,29.017.5,29.017Z" transform="matrix(0.996, -0.087, 0.087, 0.996, 47.662, 270.668)" fill="#462720"/>
          <path id="Path_228" data-name="Path 228" d="M6.24,14.8S-5.132,3.143,2.828.015C4.818-.553,6.24,14.8,6.24,14.8Z" transform="matrix(0.996, -0.087, 0.087, 0.996, 46.637, 299.146)" fill="#daa18c"/>
          <path id="Path_229" data-name="Path 229" d="M.318,0c-.715,2.192,0,16.123,0,16.123s13.784,10.8,24.872,0c1.422-1.706,1.14-9.166,1.14-9.166l-12.387,6.6s-6.982-3.384-9.584-6.6A6.567,6.567,0,0,1,3.275,4.516C3.559,1.388.318,0,.318,0Z" transform="matrix(0.996, -0.087, 0.087, 0.996, 57.044, 321.947)" fill="#ec9a73"/>
          <path id="Path_227" data-name="Path 227" d="M0,0S4.265,25.864,15.637,27.018,32.127,15.77,32.127,15.77L35.254,2.5,28.431,8.85s-9.951-1.154-18.2,0S0,0,0,0Z" transform="matrix(0.996, -0.087, 0.087, 0.996, 52.935, 308.9)" fill="#462720"/>
          <path id="Path_230" data-name="Path 230" d="M4.22,0,0,2.573S7.29,51.462,15.438,54.892s13.294-5.146,13.294-5.146L33.879,4.289,30.877,0S19.727,7.291,15.438,4.289,4.22,0,4.22,0Z" transform="matrix(0.996, -0.087, 0.087, 0.996, 54.256, 338.496)" fill="#fff"/>
          <path id="Path_231" data-name="Path 231" d="M54.816.659,20.585,12.008S2.144,109.784,0,143.234c1.715,3,16.725,3,16.725,3S30.877,90.057,29.59,88.771s2.144,0,2.144,0l-7.719,76.334h85.34l-5.146-68.186s6.862,19.727,23.586,0S150.524,60.9,150.524,60.9s-4.717-8.148-8.148-8.148S129.94,67.329,127.8,66.471s-5.146-12.436-5.146-13.723-4.288-38.167-4.288-38.167L85.769,0S87.913,47.173,83.2,47.6c1.287,0-9.006,17.583-17.583,2.144S54.816.659,54.816.659Z" transform="matrix(0.996, -0.087, 0.087, 0.996, 0, 343.243)" fill="#4e2b3e"/>
          <path id="Path_232" data-name="Path 232" d="M6,0,0,27.629l12.008,6.861c3,1.716,5.575-10.292,5.575-10.292l-3.86-3,3.86-5.147L19.3,1.9,8.148,0Z" transform="matrix(0.996, -0.087, 0.087, 0.996, 7.914, 486.872)" fill="#db9b6e"/>
          <path id="Path_233" data-name="Path 233" d="M425.725,4565.39l6.525,8.874s17.568-15.9,15.059-22.929-2.51-13.051-15.059-10.039,0,15.059,0,15.059Z" transform="translate(-279.672 -4181.323)" fill="#db9b6e"/>
          <path id="Path_234" data-name="Path 234" d="M7.947,1.338C8.449.6-2.486,93.941.526,115.023s0,53.207,0,53.207H13.577S25.623,89.423,32.651,83.4,45.2,13.628,45.2,13.628l2.449-1.308,2.068,1.308s3.012,72.282,4.016,91.356S63.27,161.2,63.27,161.2l16.063,2.51s7.2-159.363,5.7-162.374S7.947,1.338,7.947,1.338Z" transform="matrix(0.996, -0.087, 0.087, 0.996, 34.393, 504.348)" fill="#302020"/>
        </g>
      </g>
      <path id="Path_235" data-name="Path 235" d="M13.1,0,0,32.627H23.592L25.409,0Z" transform="matrix(0.996, -0.087, 0.087, 0.996, 95.743, 849.966)" fill="#303030"/>
      <path id="Path_236" data-name="Path 236" d="M4.261,0,0,27.74H21.082s10.541-4.517,10.541,0,24.6,0,24.6,0,11.043-5.522-2.51-5.522S22,2.956,22,2.956s-7.945,12.235-14.47,7.215S4.261,0,4.261,0Z" transform="matrix(0.996, -0.087, 0.087, 0.996, 165.581, 836.164)" fill="#333738"/>
      <path id="Path_238" data-name="Path 238" d="M253.593,4874.615h14.395l74.471-47.684v-10.125Z" transform="matrix(0.999, 0.035, -0.035, 0.999, 286.294, -4032.449)" fill="gray" stroke="#707070" stroke-width="1"/>
      <path id="Path_239" data-name="Path 239" d="M275.976,4886.35l87.4,74.576,338.2-205.2-94.525-76.476-60.8,41.8,36.1,32.3L391.4,4871.625l-38.95-31.825Z" transform="translate(117 -4028)" fill="gray"/>
    </g>
  </g>
</svg>
