<svg xmlns="http://www.w3.org/2000/svg" xmlns:xlink="http://www.w3.org/1999/xlink" width="1084" height="841" viewBox="0 0 1084 841">
  <defs>
    <linearGradient id="linear-gradient" x1="0.5" x2="0.5" y2="1" gradientUnits="objectBoundingBox">
      <stop offset="0" stop-color="#ef80c3"/>
      <stop offset="1" stop-color="#9a3070"/>
    </linearGradient>
    <linearGradient id="linear-gradient-2" x1="0.5" x2="0.5" y2="1" gradientUnits="objectBoundingBox">
      <stop offset="0" stop-color="#55259e"/>
      <stop offset="1" stop-color="#aa86e1"/>
    </linearGradient>
    <linearGradient id="linear-gradient-3" x1="0.5" x2="0.5" y2="1" gradientUnits="objectBoundingBox">
      <stop offset="0" stop-color="#ffee58"/>
      <stop offset="1" stop-color="#e1d042"/>
    </linearGradient>
    <linearGradient id="linear-gradient-4" x1="0.5" x2="0.5" y2="1" gradientUnits="objectBoundingBox">
      <stop offset="0" stop-color="#858585"/>
      <stop offset="1" stop-color="#cbcbcb"/>
    </linearGradient>
    <clipPath id="clip-character-contact">
      <rect width="1084" height="841"/>
    </clipPath>
  </defs>
  <g id="character-contact" clip-path="url(#clip-character-contact)">
    <rect width="1084" height="841" fill="rgba(255,255,255,0)"/>
    <g id="Group_14" data-name="Group 14" transform="translate(-46.403 -5.832)">
      <path id="Path_247" data-name="Path 247" d="M2924.666,11282.944H3249.64v-34.706s-4.5,1.765-7.888-12.621c-3.276-13.924-3.639-38.982-12.621-59.945-11.861-27.686-35.395-51.454-66.256-64.678,0-1.017-12.429,23.735-33.129,39.436-12.006,9.109-28.943,12.391-42.592,12.622-14.562.245-34.008-1.889-45.75-12.622-15.839-14.479-21.638-38.991-22.085-39.436-1.578-1.58-89.92,28.394-82.032,137.244-4.733,1.577-12.621,0-12.621,0Z" transform="translate(-2516.849 -10542.65)" fill="#07090d"/>
      <g id="Ellipse_22" data-name="Ellipse 22" transform="translate(490.403 476.832)" fill="#fff" stroke="#707070" stroke-width="1">
        <ellipse cx="79.5" cy="74.5" rx="79.5" ry="74.5" stroke="none"/>
        <ellipse cx="79.5" cy="74.5" rx="79" ry="74" fill="none"/>
      </g>
      <circle id="Ellipse_23" data-name="Ellipse 23" cx="56" cy="56" r="56" transform="translate(514.403 494.832)" fill="#ac1332"/>
      <g id="Ellipse_24" data-name="Ellipse 24" transform="translate(620.403 507.832)" stroke="#707070" stroke-width="1">
        <ellipse cx="7.5" cy="7" rx="7.5" ry="7" stroke="none"/>
        <ellipse cx="7.5" cy="7" rx="7" ry="6.5" fill="none"/>
      </g>
      <g id="Ellipse_33" data-name="Ellipse 33" transform="translate(600.403 487.832)" stroke="#707070" stroke-width="1">
        <ellipse cx="6.5" cy="7" rx="6.5" ry="7" stroke="none"/>
        <ellipse cx="6.5" cy="7" rx="6" ry="6.5" fill="none"/>
      </g>
      <g id="Ellipse_32" data-name="Ellipse 32" transform="translate(499.403 525.832)" stroke="#707070" stroke-width="1">
        <ellipse cx="7.5" cy="6" rx="7.5" ry="6" stroke="none"/>
        <ellipse cx="7.5" cy="6" rx="7" ry="5.5" fill="none"/>
      </g>
      <g id="Ellipse_25" data-name="Ellipse 25" transform="translate(635.403 537.832)" stroke="#707070" stroke-width="1">
        <ellipse cx="7" cy="7.5" rx="7" ry="7.5" stroke="none"/>
        <ellipse cx="7" cy="7.5" rx="6.5" ry="7" fill="none"/>
      </g>
      <g id="Ellipse_26" data-name="Ellipse 26" transform="translate(620.403 581.832)" stroke="#707070" stroke-width="1">
        <ellipse cx="7.5" cy="7" rx="7.5" ry="7" stroke="none"/>
        <ellipse cx="7.5" cy="7" rx="7" ry="6.5" fill="none"/>
      </g>
      <g id="Ellipse_27" data-name="Ellipse 27" transform="translate(587.403 606.832)" stroke="#707070" stroke-width="1">
        <ellipse cx="6.5" cy="7" rx="6.5" ry="7" stroke="none"/>
        <ellipse cx="6.5" cy="7" rx="6" ry="6.5" fill="none"/>
      </g>
      <g id="Ellipse_28" data-name="Ellipse 28" transform="translate(526.403 602.832)" stroke="#707070" stroke-width="1">
        <ellipse cx="7.5" cy="6" rx="7.5" ry="6" stroke="none"/>
        <ellipse cx="7.5" cy="6" rx="7" ry="5.5" fill="none"/>
      </g>
      <g id="Ellipse_29" data-name="Ellipse 29" transform="translate(499.403 568.832)" stroke="#707070" stroke-width="1">
        <ellipse cx="7.5" cy="6.5" rx="7.5" ry="6.5" stroke="none"/>
        <ellipse cx="7.5" cy="6.5" rx="7" ry="6" fill="none"/>
      </g>
      <g id="Ellipse_30" data-name="Ellipse 30" transform="translate(564.403 480.832)" stroke="#707070" stroke-width="1">
        <ellipse cx="6.5" cy="7" rx="6.5" ry="7" stroke="none"/>
        <ellipse cx="6.5" cy="7" rx="6" ry="6.5" fill="none"/>
      </g>
      <g id="Ellipse_31" data-name="Ellipse 31" transform="translate(520.403 494.832)" stroke="#707070" stroke-width="1">
        <ellipse cx="7" cy="6" rx="7" ry="6" stroke="none"/>
        <ellipse cx="7" cy="6" rx="6.5" ry="5.5" fill="none"/>
      </g>
      <path id="Path_248" data-name="Path 248" d="M2892.778,11052.442s-30.855-61.958,5.741-85.638c-.718,0,233.928-39.466,370.985,0-.718,2.152,51.664,20.589,10.763,85.638-1.435-.964-45.207-24.646-70.323-4.552-.717,2.151-15.069-17.94-8.61-29.421-1.435,2.873-44.243,1.032-67.205,5.337,0,0-47.7-33.727-101.521,0,.718.718-58.744-5.337-58.744-5.337s-5.74,36.377-7.894,33.973-52.382-15.533-67.451,0C2899.237,11050.759,2892.778,11052.442,2892.778,11052.442Z" transform="translate(-2513.477 -10530.271)" fill="#fecc2a"/>
      <path id="Path_249" data-name="Path 249" d="M2894.236,11064.09a158.853,158.853,0,0,1,30.445-5.641c13.449-1.148,29.4-.51,42.314,5.641a10.237,10.237,0,0,1,1.464-3.768c.606-.7.761.08-6.157-2.283-12.741-4.361-35.541-6.371-53.312-3.689l-14.753,5.973v3.768Z" transform="translate(-2514.52 -10538.225)" fill="#ac1332"/>
      <path id="Path_250" data-name="Path 250" d="M2894.236,11063.862a106.808,106.808,0,0,1,21.473-5.642c2.937-.452,5.359-1.475,9.01-1.785a80.483,80.483,0,0,1,40.906,7.427c-.153-.008,2.039-2.724,2.833-3.768.606-.7.761.079-6.157-2.287-9.225-3.156-41.006-7.681-41.006-7.681s-11.314,1.963-16.219,2.7l-10.841,7.265v3.768Z" transform="translate(-2198.704 -10541.688)" fill="#ac1332"/>
      <g id="Ellipse_34" data-name="Ellipse 34" transform="translate(535.403 234.832)" fill="#fff" stroke="#707070" stroke-width="1">
        <ellipse cx="35" cy="29" rx="35" ry="29" stroke="none"/>
        <ellipse cx="35" cy="29" rx="34.5" ry="28.5" fill="none"/>
      </g>
      <g id="Ellipse_35" data-name="Ellipse 35" transform="translate(535.403 234.832)" fill="#fff" stroke="#707070" stroke-width="1">
        <ellipse cx="35" cy="29" rx="35" ry="29" stroke="none"/>
        <ellipse cx="35" cy="29" rx="34.5" ry="28.5" fill="none"/>
      </g>
      <ellipse id="Ellipse_36" data-name="Ellipse 36" cx="35" cy="29" rx="35" ry="29" transform="translate(535.403 234.832)" fill="url(#linear-gradient)"/>
      <ellipse id="Ellipse_37" data-name="Ellipse 37" cx="26.5" cy="23" rx="26.5" ry="23" transform="translate(600.403 306.832)" fill="url(#linear-gradient-2)"/>
      <ellipse id="Ellipse_38" data-name="Ellipse 38" cx="20" cy="17" rx="20" ry="17" transform="translate(534.403 334.832)" fill="url(#linear-gradient-3)"/>
      <ellipse id="Ellipse_39" data-name="Ellipse 39" cx="19" cy="15.5" rx="19" ry="15.5" transform="translate(587.403 381.832)" fill="url(#linear-gradient-4)"/>
      <g id="Rectangle_21" data-name="Rectangle 21" transform="translate(211.338 258.262) rotate(-14)" fill="#829d8e" stroke="#707070" stroke-width="1">
        <rect width="282.572" height="157.908" rx="45" stroke="none"/>
        <rect x="0.5" y="0.5" width="281.572" height="156.908" rx="44.5" fill="none"/>
      </g>
      <path id="Path_251" data-name="Path 251" d="M3263.75,10752.8l111.5,46.492,83.425-93.852Z" transform="translate(-3012.561 -10504.217)" fill="#3e3232" stroke="#707070" stroke-width="1"/>
      <g id="Rectangle_22" data-name="Rectangle 22" transform="matrix(0.966, -0.259, 0.259, 0.966, 393.601, 142.74)" fill="#ec8a81" stroke="#707070" stroke-width="1">
        <rect width="132.052" height="86.803" rx="43.402" stroke="none"/>
        <rect x="0.5" y="0.5" width="131.052" height="85.803" rx="42.902" fill="none"/>
      </g>
      <ellipse id="Ellipse_40" data-name="Ellipse 40" cx="23.086" cy="19.854" rx="23.086" ry="19.854" transform="translate(484.719 174.2) rotate(-9)"/>
      <path id="Path_252" data-name="Path 252" d="M3276.583,11241.4s33.828,10.631,40.916,0-3.544-23.625,10.631-27.172,18.9-14.174,0-21.262,2.362-18.9,5.906-14.176-8.27-36.619,8.269-41.342,16.538-27.172,0-28.354,24.807-2.361,0-20.082,0-22.445,0-22.445,21.263-1.178,0-28.35c2.362,0,23.626-20.082,0-18.9s-7.961,0-7.961,0" transform="translate(-2543.793 -10535.633)" fill="none" stroke="#6d6d6d" stroke-width="6"/>
      <path id="Path_253" data-name="Path 253" d="M3312.667,10868.941s72.4-202.639,72.858-202.184-134.753,39.092-78.806,189.322c-.373-1.117-2.919-6.338-1.8-3.889C3306.593,10855.828,3312.667,10868.941,3312.667,10868.941Z" transform="translate(-2545.061 -10508.641)" fill="none" stroke="#000" stroke-width="6"/>
      <path id="Path_254" data-name="Path 254" d="M3384.055,10660.383s70.5,131.578-62.113,200.994c0-1.035-13.469,9.324-13.469,9.324s-38.833-18.588-58.763-55.426c-15.062-27.842-19.061-66.512,14.213-115.523,1.036,0,45.587-65.273,123.292-39.369,31.47,10.488,54,36.684,63.2,61.242,13.316,35.543,4.147,70.336,4.147,70.336s-17.289,49.4-65.78,70.053c-14.207,6.055-31.216,9.633-51.3,8.688-1.037,1.039-29.01,0-29.01,0" transform="translate(-2540.875 -10507.688)" fill="none" stroke="#000" stroke-width="6"/>
      <path id="Path_255" data-name="Path 255" d="M3452.073,10721.254s-80.292,6.541-144.528-52.517" transform="translate(-2546.163 -10508.792)" fill="none" stroke="#000" stroke-width="6"/>
      <path id="Path_256" data-name="Path 256" d="M3251.446,10734.935l199.96,74.595" transform="translate(-2541.867 -10513.862)" fill="none" stroke="#000" stroke-width="6"/>
      <path id="Path_257" data-name="Path 257" d="M3391.4,10872.994s-40.407-56.592-138.833-47.268" transform="translate(-2541.954 -10520.733)" fill="none" stroke="#000" stroke-width="6"/>
      <path id="Path_258" data-name="Path 258" d="M2828.731,11082.307s7.263-30.016,24.206-18.4c0,.485.968-24.206-24.206-17.428-.484,1.937-29.531,12.1-3.872,32.435A31.652,31.652,0,0,1,2828.731,11082.307Z" transform="translate(-2508.399 -10537.624)"/>
      <path id="Path_259" data-name="Path 259" d="M2852.2,11065.062s1.453,22.859-5.325,21.889-16.943-5.325-16.943-5.325,8.23-21.3,14.523-19.848S2852.2,11065.062,2852.2,11065.062Z" transform="translate(-2509.596 -10538.88)" fill="#f8cdb3"/>
      <path id="Path_270" data-name="Path 270" d="M0-3.167,9.234-.242l-.711,11.1L0,9.915Z" transform="translate(322.245 546.426)" fill="#e8cebf"/>
      <path id="Path_260" data-name="Path 260" d="M2829.029,11092s-30.959,10.343-35.8,76.668c-.968-1.454,16.945,0,16.945,0v-8.23s19.61,15.586,26.323,4.4-2.685-52.8-2.685-52.8,1.79-14.766,2.685-14.766-7.466-1.791-7.466-1.791Z" transform="translate(-2506.782 -10541.197)" fill="#3e2cf2"/>
      <path id="Path_261" data-name="Path 261" d="M2849.227,11105.457s25.506,37.588,35.35,40.719-11.187,21.033-11.187,21.033-6.712-.895-8.5-6.264-13.872-28.193-15.661-41.17S2849.227,11105.457,2849.227,11105.457Z" transform="translate(-2511.013 -10542.229)" fill="#3e2cf2"/>
      <path id="Path_262" data-name="Path 262" d="M2839.677,11097.72l9.09,5.8s11.635,48.327,10.74,47.881-9.038,8.055-17.272,0c-.852.711-4.763-28.654-5.635-41.027a6.454,6.454,0,0,1,1.428-4.616Z" transform="translate(-2510.106 -10541.637)" fill="#fff"/>
      <path id="Path_263" data-name="Path 263" d="M2792.271,11175.251v6.7s-13.077,9.844-10.84,13.87,14.768,0,14.768,0,4.027-12.528,3.58-16.107S2792.271,11175.251,2792.271,11175.251Z" transform="translate(-2505.863 -10550.344)" fill="#f8cdb3"/>
      <path id="Path_264" data-name="Path 264" d="M2885.15,11160.605s2.238.17,10.739,12.7,11.187-11.972,8.5-12.7-14.319-4.754-14.319-4.754Z" transform="translate(-2513.823 -10546.087)" fill="#f8cdb3"/>
      <path id="Path_265" data-name="Path 265" d="M2813.978,11173.426s-4.814,15.2-3.471,21.913,45.194,0,45.194,0,2.686,4.474,1.791-8.951,0-31.55,0-31.55-16.737,6.423-18.975-3.418c1.79,2.238,7.8,26.667-19.493,17.27-5.37-3.131-8.517-5.123-8.517-5.123v9.859Z" transform="translate(-2508.091 -10545.749)" fill="#9f0d0d"/>
      <path id="Path_266" data-name="Path 266" d="M2813.07,11202.209s-5.708,43.556-10.183,64.14-4.475,16.108-4.475,16.108H2808.7s28.19-69.357,24.611-78.31C2833.315,11204.6,2813.07,11202.209,2813.07,11202.209Z" transform="translate(-2507.183 -10549.636)" fill="#f8cdb3"/>
      <path id="Path_267" data-name="Path 267" d="M2836.549,11201.962l22.059-2.983s8.5,60.409,4.027,80.546c-.895,0-10.292,4.475-10.292,0s.448-35.35-2.237-43.4-8.055-34.161-8.055-34.161Z" transform="translate(-2510.103 -10549.389)" fill="#f8cdb3"/>
      <path id="Path_268" data-name="Path 268" d="M2798.165,11288.353s-6.712,4.276,0,7.854,32.667,2.24,32.667,2.24,2.684-10.79-10.292-10.094A194.773,194.773,0,0,1,2798.165,11288.353Z" transform="translate(-2506.935 -10556.229)"/>
      <path id="Path_269" data-name="Path 269" d="M2853.976,11288.116s-7.2,8.336,2.64,10.572,27.744,0,27.744,0,9.4-16.108-6.712-12.528-16.109,0-16.109,0Z" transform="translate(-2511.243 -10556.023)"/>
      <path id="Path_272" data-name="Path 272" d="M3422.318,11060.2s14.908-1.6,14.908,11.3,12.892,20.146,12.892,20.146,10.475,1.207,2.418-15.714,0,25.785-5.641-4.433-20.145-18.937-20.145-18.937Z" transform="translate(-2554.95 -10538.021)" fill="#512c2c"/>
      <path id="Path_273" data-name="Path 273" d="M3422.055,11061.1a27.575,27.575,0,0,0-1.571,7.406c-.443,5.71.327,13.692,3.7,15.862,5.64,3.626,6.447,0,6.447,0v4.03h7.252s3.855-10.956-1.786-20.625a14.623,14.623,0,0,0-1.572-2.619c-4.643-5.807-10.341-4.055-10.341-4.055Z" transform="translate(-2554.801 -10538.818)" fill="#f1a78c"/>
      <path id="Path_274" data-name="Path 274" d="M3426.058,11090.685s-7.737,36.664-49.639,31.828c-.4.4,8.059,26.994,0,26.594s32.634,2.416,34.649-11.686c-.4,2.419.806,8.862-2.417,15.713s39.484,0,39.484,0-1.612,16.516,0,16.922,28.605,1.611,30.216-2.42-13.3-52.777-26.188-62.446c-.4-.405-7.673-11.867-7.673-11.867l-9.249-2.638Z" transform="translate(-2551.354 -10541.098)" fill="#47d543"/>
      <path id="Path_276" data-name="Path 276" d="M3374.351,11123.422s-8.212-7.252-10.227-4.43-2.014,10.07-2.014,10.07,11.085,9.637,14.154,4.4S3374.351,11123.422,3374.351,11123.422Z" transform="translate(-2550.341 -10543.216)" fill="#f1a78c"/>
      <path id="Path_277" data-name="Path 277" d="M3479.006,11176.99s-2.014,14.822,3.224,16.436,18.13,0,18.13,0,2.417-1.613-6.044-8.463-8.058-10.071-8.058-10.071Z" transform="translate(-2559.261 -10547.545)" fill="#f1a78c"/>
      <path id="Path_278" data-name="Path 278" d="M3405.257,11213.095s-13.7,63.783-20.145,65.8,10.475,5.239,11.684,4.835,26.592-65.268,24.576-68.894-4.834-7.657-4.834-7.657l-11.281,1.228Z" transform="translate(-2551.99 -10550.016)" fill="#f1a78c"/>
      <path id="Path_279" data-name="Path 279" d="M3444.376,11204.649s-9.312,18.446,5.191,25.3,62.046,10.073,62.046,10.073,7.252-11.685,0-12.489c-3.539-.393-14.466-3.569-25.558-5.979s-22.329-3.975-24.8-.468c-4.834,6.849-5.518-16.434-5.518-16.434Z" transform="translate(-2556.414 -10549.823)" fill="#f1a78c"/>
      <path id="Path_280" data-name="Path 280" d="M3384.059,11287.891s-20.95,1.611-19.339,6.851,30.217,2.015,30.217,2.015v-7.254Z" transform="translate(-2550.533 -10556.195)"/>
      <path id="Path_281" data-name="Path 281" d="M3520.568,11231.838s2.015-7.256,6.044,2.82,0,27.8,0,27.8-12.086,7.254-10.072-8.457S3520.568,11231.838,3520.568,11231.838Z" transform="translate(-2562.146 -10551.712)"/>
      <path id="Path_275" data-name="Path 275" d="M3412.342,11159.845s-3.223,32.232-12.489,39.481,9.266,4.837,9.266,4.837,47.139-6.851,45.527,0,8.058,4.833,8.058,4.833,7.655-20.144,3.222-28.2-3.222-5.239-3.222-5.239h-12.087s-2.014-17.324,0-18.129-41.5,2.416-41.5,2.416Z" transform="translate(-2553.032 -10546.199)" fill="#707070"/>
    </g>
  </g>
</svg>
